<svg xmlns="http://www.w3.org/2000/svg" width="20.313" height="20.313" viewBox="0 0 20.313 20.313">
  <g id="ico-logout" transform="translate(-2.344 -2.344)">
    <path id="パス_3329" data-name="パス 3329" d="M9.375,13.545h9.263l-2.129,2.183,1.46,1.46L22.656,12.5,17.969,7.813l-1.514,1.46,2.183,2.183H9.375Z" fill="#6c63ff"/>
    <path id="パス_3330" data-name="パス 3330" d="M12.485,20.571a8.076,8.076,0,0,1-5.7-13.779,8.051,8.051,0,0,1,11.387-.01L19.653,5.3A10.792,10.792,0,0,0,18.3,4.17a10.164,10.164,0,1,0,1.348,15.522l-1.475-1.475A7.992,7.992,0,0,1,12.485,20.571Z" fill="#6c63ff"/>
    <path id="パス_3331" data-name="パス 3331" d="M21.846,12.471H21.9v.059h-.059Z" fill="#6c63ff"/>
  </g>
</svg>
