<svg xmlns="http://www.w3.org/2000/svg" width="30" height="21.096" viewBox="0 0 30 21.096">
  <g id="menu" transform="translate(-3 -7.5)">
    <path id="パス_3399" data-name="パス 3399" d="M3,9A1.5,1.5,0,0,1,4.5,7.5h27a1.5,1.5,0,0,1,0,3H4.5A1.5,1.5,0,0,1,3,9Z" fill="#707070"/>
    <path id="パス_3400" data-name="パス 3400" d="M3,18.048a1.5,1.5,0,0,1,1.5-1.5h27a1.5,1.5,0,0,1,0,3H4.5A1.5,1.5,0,0,1,3,18.048Z" fill="#707070"/>
    <path id="パス_3401" data-name="パス 3401" d="M4.5,25.6a1.5,1.5,0,0,0,0,3h27a1.5,1.5,0,0,0,0-3Z" fill="#707070"/>
  </g>
</svg>
