<?xml version="1.0" ?><!DOCTYPE svg  PUBLIC '-//W3C//DTD SVG 1.1//EN'  'http://www.w3.org/Graphics/SVG/1.1/DTD/svg11.dtd'><svg height="100%" style="fill-rule:evenodd;clip-rule:evenodd;stroke-linejoin:round;stroke-miterlimit:2;" version="1.1" viewBox="0 0 64 64" width="100%" xml:space="preserve" xmlns="http://www.w3.org/2000/svg" xmlns:serif="http://www.serif.com/" xmlns:xlink="http://www.w3.org/1999/xlink"><g transform="matrix(1,0,0,1,-400,-160)"><g id="spotify-apps-platform" transform="matrix(1,0,0,1,400,160)"><rect height="64" style="fill:none;" width="64" x="0" y="0"/><g transform="matrix(1,0,0,1,-400,-160)"><circle cx="432" cy="192" r="26" style="fill:rgb(149,214,164);"/></g><g transform="matrix(1,0,0,1,-400,-160)"><path d="M414.646,172.646C410.515,177.249 408,183.333 408,190C408,204.35 419.65,216 434,216C440.667,216 446.751,213.485 451.354,209.354C446.592,214.66 439.683,218 432,218C417.65,218 406,206.35 406,192C406,184.317 409.34,177.408 414.646,172.646Z" style="fill:rgb(120,194,164);"/></g><g transform="matrix(1,0,0,1,-400,-160)"><path d="M432,165.5C417.374,165.5 405.5,177.374 405.5,192C405.5,206.626 417.374,218.5 432,218.5C446.626,218.5 458.5,206.626 458.5,192C458.5,177.374 446.626,165.5 432,165.5ZM432,166.5C446.074,166.5 457.5,177.926 457.5,192C457.5,206.074 446.074,217.5 432,217.5C417.926,217.5 406.5,206.074 406.5,192C406.5,177.926 417.926,166.5 432,166.5Z"/></g><g transform="matrix(1.15385,0,0,1.15385,-470.244,-153.538)"><path d="M445.267,167.646C441.197,165.429 436.635,164.267 432,164.267C429.068,164.267 426.155,164.731 423.369,165.644C422.46,165.941 421.964,166.921 422.262,167.83C422.559,168.74 423.539,169.236 424.448,168.938C426.886,168.14 429.435,167.733 432,167.733C436.056,167.733 440.047,168.75 443.609,170.69C444.449,171.148 445.503,170.838 445.96,169.997C446.418,169.157 446.108,168.104 445.267,167.646Z" style="fill:rgb(249,246,249);"/></g><g transform="matrix(1.15385,0,0,1.15385,-470.244,-153.538)"><path d="M445.475,167.266C441.341,165.013 436.708,163.833 432,163.833C429.023,163.833 426.064,164.305 423.235,165.232C422.098,165.604 421.478,166.829 421.85,167.965C422.222,169.102 423.447,169.722 424.583,169.35C426.977,168.566 429.481,168.167 432,168.167C435.984,168.167 439.904,169.165 443.402,171.071C444.452,171.643 445.769,171.255 446.341,170.205C446.913,169.155 446.525,167.838 445.475,167.266ZM445.06,168.027C445.69,168.37 445.923,169.16 445.58,169.79C445.237,170.42 444.446,170.653 443.816,170.31C440.191,168.335 436.128,167.3 432,167.3C429.389,167.3 426.795,167.714 424.313,168.526C423.632,168.75 422.897,168.377 422.673,167.696C422.45,167.014 422.822,166.279 423.504,166.056C426.247,165.158 429.114,164.7 432,164.7C436.563,164.7 441.053,165.844 445.06,168.027Z"/></g><g transform="matrix(1.46154,0,0,1.46154,-603.167,-212.615)"><path d="M444.715,167.765C440.793,165.707 436.43,164.632 432,164.632C429.415,164.632 426.844,164.998 424.362,165.719C423.637,165.93 423.219,166.69 423.43,167.415C423.64,168.14 424.4,168.558 425.126,168.347C427.359,167.698 429.674,167.368 432,167.368C435.987,167.368 439.914,168.336 443.444,170.188C444.113,170.539 444.94,170.281 445.291,169.612C445.642,168.943 445.384,168.116 444.715,167.765Z" style="fill:rgb(249,246,249);"/></g><g transform="matrix(1.46154,0,0,1.46154,-603.167,-212.615)"><path d="M444.874,167.462C440.903,165.378 436.485,164.289 432,164.289C429.383,164.289 426.779,164.66 424.266,165.391C423.36,165.654 422.838,166.604 423.101,167.51C423.365,168.417 424.315,168.939 425.221,168.676C427.424,168.035 429.706,167.711 432,167.711C435.931,167.711 439.804,168.665 443.285,170.491C444.121,170.93 445.156,170.607 445.594,169.771C446.033,168.935 445.71,167.9 444.874,167.462ZM444.556,168.068C445.058,168.331 445.251,168.952 444.988,169.453C444.725,169.955 444.104,170.148 443.603,169.885C440.023,168.007 436.042,167.026 432,167.026C429.642,167.026 427.295,167.36 425.03,168.019C424.486,168.177 423.916,167.863 423.758,167.32C423.6,166.776 423.913,166.206 424.457,166.048C426.908,165.335 429.448,164.974 432,164.974C436.374,164.974 440.683,166.035 444.556,168.068Z"/></g><g transform="matrix(1.76923,0,0,1.76923,-736.09,-271.692)"><path d="M444.287,167.811C440.48,165.877 436.27,164.87 432,164.87C429.593,164.87 427.196,165.19 424.874,165.822C424.272,165.986 423.916,166.608 424.08,167.21C424.244,167.812 424.865,168.168 425.467,168.004C427.597,167.424 429.793,167.13 432,167.13C435.914,167.13 439.773,168.054 443.263,169.827C443.819,170.11 444.5,169.887 444.783,169.331C445.065,168.775 444.843,168.094 444.287,167.811Z" style="fill:rgb(249,246,249);"/></g><g transform="matrix(1.76923,0,0,1.76923,-736.09,-271.692)"><path d="M444.415,167.559C440.568,165.605 436.315,164.587 432,164.587C429.568,164.587 427.146,164.911 424.799,165.55C424.047,165.754 423.602,166.532 423.807,167.284C424.012,168.037 424.789,168.481 425.542,168.276C427.647,167.703 429.818,167.413 432,167.413C435.87,167.413 439.685,168.326 443.135,170.079C443.83,170.432 444.681,170.154 445.035,169.459C445.388,168.764 445.11,167.912 444.415,167.559ZM444.159,168.063C444.576,168.275 444.743,168.786 444.531,169.203C444.319,169.62 443.808,169.787 443.391,169.575C439.861,167.782 435.959,166.848 432,166.848C429.768,166.848 427.547,167.145 425.393,167.731C424.942,167.854 424.475,167.587 424.352,167.136C424.229,166.684 424.496,166.218 424.948,166.095C427.246,165.469 429.618,165.152 432,165.152C436.226,165.152 440.391,166.15 444.159,168.063Z"/></g></g></g></svg>